<mxfile host="app.diagrams.net" modified="2023-12-12T11:26:39.823Z" agent="Mozilla/5.0 (X11; Linux x86_64; rv:120.0) Gecko/20100101 Firefox/120.0" etag="Uh3r-QeUlaWurwXRMxO9" version="22.1.7" type="device">
  <diagram name="Pagina-1" id="cxVwyrqSip8XLjAx2yYT">
    <mxGraphModel dx="2514" dy="932" grid="1" gridSize="10" guides="1" tooltips="1" connect="1" arrows="1" fold="1" page="1" pageScale="1" pageWidth="827" pageHeight="1169" math="0" shadow="0">
      <root>
        <mxCell id="0" />
        <mxCell id="1" parent="0" />
        <mxCell id="PDaQLxChN3T3SNH4538d-1" value="&lt;div style=&quot;font-size: 12px;&quot;&gt;Source 1&lt;/div&gt;" style="ellipse;whiteSpace=wrap;html=1;fillColor=none;strokeWidth=2;fontStyle=1;fontSize=12;" vertex="1" parent="1">
          <mxGeometry x="-37" y="19" width="100" height="40" as="geometry" />
        </mxCell>
        <mxCell id="PDaQLxChN3T3SNH4538d-2" value="&lt;div style=&quot;font-size: 12px;&quot;&gt;Source 2&lt;br style=&quot;font-size: 12px;&quot;&gt;&lt;/div&gt;" style="ellipse;whiteSpace=wrap;html=1;fillColor=none;strokeWidth=2;fontStyle=1;fontSize=12;" vertex="1" parent="1">
          <mxGeometry x="83" y="19" width="100" height="40" as="geometry" />
        </mxCell>
        <mxCell id="PDaQLxChN3T3SNH4538d-3" value="&lt;div style=&quot;font-size: 12px;&quot;&gt;Source i&lt;br style=&quot;font-size: 12px;&quot;&gt;&lt;/div&gt;" style="ellipse;whiteSpace=wrap;html=1;fillColor=none;strokeWidth=2;fontStyle=1;fontSize=12;" vertex="1" parent="1">
          <mxGeometry x="211.13" y="19" width="100" height="40" as="geometry" />
        </mxCell>
        <mxCell id="PDaQLxChN3T3SNH4538d-5" value="&lt;div style=&quot;font-size: 12px;&quot;&gt;Classifier&lt;/div&gt;" style="text;html=1;strokeColor=none;fillColor=none;align=center;verticalAlign=middle;whiteSpace=wrap;rounded=0;strokeWidth=2;fontStyle=1;fontSize=12;" vertex="1" parent="1">
          <mxGeometry x="217.5" y="140" width="60" height="30" as="geometry" />
        </mxCell>
        <mxCell id="PDaQLxChN3T3SNH4538d-6" value="" style="endArrow=classic;html=1;rounded=0;strokeWidth=2;fontStyle=1;fontSize=12;" edge="1" parent="1">
          <mxGeometry width="50" height="50" relative="1" as="geometry">
            <mxPoint x="211" y="104" as="sourcePoint" />
            <mxPoint x="211" y="214" as="targetPoint" />
          </mxGeometry>
        </mxCell>
        <mxCell id="PDaQLxChN3T3SNH4538d-16" value="" style="endArrow=classic;html=1;rounded=0;strokeWidth=2;fontStyle=1;fontSize=12;" edge="1" parent="1">
          <mxGeometry width="50" height="50" relative="1" as="geometry">
            <mxPoint x="217.5" y="530" as="sourcePoint" />
            <mxPoint x="218" y="630" as="targetPoint" />
          </mxGeometry>
        </mxCell>
        <mxCell id="PDaQLxChN3T3SNH4538d-17" value="CDuce" style="text;html=1;strokeColor=none;fillColor=none;align=center;verticalAlign=middle;whiteSpace=wrap;rounded=0;strokeWidth=2;fontStyle=1;fontSize=12;" vertex="1" parent="1">
          <mxGeometry x="221.25" y="560" width="60" height="30" as="geometry" />
        </mxCell>
        <mxCell id="PDaQLxChN3T3SNH4538d-63" value="" style="endArrow=classic;startArrow=classic;html=1;rounded=0;strokeWidth=2;fontStyle=1;fontSize=12;" edge="1" parent="1">
          <mxGeometry width="50" height="50" relative="1" as="geometry">
            <mxPoint x="210" y="1040" as="sourcePoint" />
            <mxPoint x="210" y="970" as="targetPoint" />
          </mxGeometry>
        </mxCell>
        <mxCell id="PDaQLxChN3T3SNH4538d-65" value="Compatible with" style="text;html=1;strokeColor=none;fillColor=none;align=center;verticalAlign=middle;whiteSpace=wrap;rounded=0;strokeWidth=2;fontStyle=1;fontSize=12;" vertex="1" parent="1">
          <mxGeometry x="180" y="990" width="160" height="30" as="geometry" />
        </mxCell>
        <mxCell id="PDaQLxChN3T3SNH4538d-66" value="Wikidata" style="ellipse;shape=cloud;whiteSpace=wrap;html=1;fillColor=none;strokeWidth=2;fontStyle=1;fontSize=12;" vertex="1" parent="1">
          <mxGeometry x="150" y="1060" width="120" height="80" as="geometry" />
        </mxCell>
        <mxCell id="PDaQLxChN3T3SNH4538d-67" value="" style="group;strokeWidth=2;fontStyle=1;fontSize=12;" vertex="1" connectable="0" parent="1">
          <mxGeometry x="-120" y="550" width="610" height="400" as="geometry" />
        </mxCell>
        <mxCell id="PDaQLxChN3T3SNH4538d-18" value="Subject" style="ellipse;whiteSpace=wrap;html=1;aspect=fixed;fillColor=none;strokeWidth=2;fontStyle=1;fontSize=12;" vertex="1" parent="PDaQLxChN3T3SNH4538d-67">
          <mxGeometry x="310" y="171" width="50" height="50" as="geometry" />
        </mxCell>
        <mxCell id="PDaQLxChN3T3SNH4538d-19" value="Category 1" style="ellipse;whiteSpace=wrap;html=1;fillColor=none;strokeWidth=2;fontStyle=1;fontSize=12;" vertex="1" parent="PDaQLxChN3T3SNH4538d-67">
          <mxGeometry x="180" y="100" width="90" height="30" as="geometry" />
        </mxCell>
        <mxCell id="PDaQLxChN3T3SNH4538d-20" value="Category 2" style="ellipse;whiteSpace=wrap;html=1;fillColor=none;strokeWidth=2;fontStyle=1;fontSize=12;" vertex="1" parent="PDaQLxChN3T3SNH4538d-67">
          <mxGeometry x="170" y="210" width="90" height="30" as="geometry" />
        </mxCell>
        <mxCell id="PDaQLxChN3T3SNH4538d-21" value="Category 3" style="ellipse;whiteSpace=wrap;html=1;fillColor=none;strokeWidth=2;fontStyle=1;fontSize=12;" vertex="1" parent="PDaQLxChN3T3SNH4538d-67">
          <mxGeometry x="290" y="280" width="90" height="30" as="geometry" />
        </mxCell>
        <mxCell id="PDaQLxChN3T3SNH4538d-22" value="Category n" style="ellipse;whiteSpace=wrap;html=1;fillColor=none;strokeWidth=2;fontStyle=1;fontSize=12;" vertex="1" parent="PDaQLxChN3T3SNH4538d-67">
          <mxGeometry x="400" y="90" width="90" height="30" as="geometry" />
        </mxCell>
        <mxCell id="PDaQLxChN3T3SNH4538d-24" value="Category i" style="ellipse;whiteSpace=wrap;html=1;fillColor=none;strokeWidth=2;fontStyle=1;fontSize=12;" vertex="1" parent="PDaQLxChN3T3SNH4538d-67">
          <mxGeometry x="411" y="221" width="90" height="30" as="geometry" />
        </mxCell>
        <mxCell id="PDaQLxChN3T3SNH4538d-27" value="" style="endArrow=none;html=1;rounded=0;strokeWidth=2;fontStyle=1;fontSize=12;" edge="1" parent="PDaQLxChN3T3SNH4538d-67" source="PDaQLxChN3T3SNH4538d-18" target="PDaQLxChN3T3SNH4538d-20">
          <mxGeometry width="50" height="50" relative="1" as="geometry">
            <mxPoint y="240" as="sourcePoint" />
            <mxPoint x="50" y="190" as="targetPoint" />
          </mxGeometry>
        </mxCell>
        <mxCell id="PDaQLxChN3T3SNH4538d-28" value="" style="endArrow=none;html=1;rounded=0;strokeWidth=2;fontStyle=1;fontSize=12;" edge="1" parent="PDaQLxChN3T3SNH4538d-67" source="PDaQLxChN3T3SNH4538d-18" target="PDaQLxChN3T3SNH4538d-19">
          <mxGeometry width="50" height="50" relative="1" as="geometry">
            <mxPoint x="327" y="224" as="sourcePoint" />
            <mxPoint x="167" y="264" as="targetPoint" />
          </mxGeometry>
        </mxCell>
        <mxCell id="PDaQLxChN3T3SNH4538d-30" value="" style="endArrow=none;html=1;rounded=0;dashed=1;strokeWidth=2;fontStyle=1;fontSize=12;" edge="1" parent="PDaQLxChN3T3SNH4538d-67" source="PDaQLxChN3T3SNH4538d-18" target="PDaQLxChN3T3SNH4538d-22">
          <mxGeometry width="50" height="50" relative="1" as="geometry">
            <mxPoint x="356" y="184" as="sourcePoint" />
            <mxPoint x="418" y="60" as="targetPoint" />
          </mxGeometry>
        </mxCell>
        <mxCell id="PDaQLxChN3T3SNH4538d-32" value="" style="endArrow=none;html=1;rounded=0;strokeWidth=2;fontStyle=1;fontSize=12;" edge="1" parent="PDaQLxChN3T3SNH4538d-67" source="PDaQLxChN3T3SNH4538d-18" target="PDaQLxChN3T3SNH4538d-21">
          <mxGeometry width="50" height="50" relative="1" as="geometry">
            <mxPoint x="365" y="221" as="sourcePoint" />
            <mxPoint x="517" y="341" as="targetPoint" />
          </mxGeometry>
        </mxCell>
        <mxCell id="PDaQLxChN3T3SNH4538d-31" value="" style="endArrow=none;html=1;rounded=0;dashed=1;strokeWidth=2;fontStyle=1;fontSize=12;" edge="1" parent="PDaQLxChN3T3SNH4538d-67" source="PDaQLxChN3T3SNH4538d-18" target="PDaQLxChN3T3SNH4538d-24">
          <mxGeometry width="50" height="50" relative="1" as="geometry">
            <mxPoint x="370" y="203" as="sourcePoint" />
            <mxPoint x="502" y="189" as="targetPoint" />
          </mxGeometry>
        </mxCell>
        <mxCell id="PDaQLxChN3T3SNH4538d-36" value="Information" style="ellipse;whiteSpace=wrap;html=1;fillColor=none;strokeWidth=2;fontStyle=1;fontSize=12;" vertex="1" parent="PDaQLxChN3T3SNH4538d-67">
          <mxGeometry x="140" width="70" height="40" as="geometry" />
        </mxCell>
        <mxCell id="PDaQLxChN3T3SNH4538d-37" value="Information" style="ellipse;whiteSpace=wrap;html=1;fillColor=none;strokeWidth=2;fontStyle=1;fontSize=12;" vertex="1" parent="PDaQLxChN3T3SNH4538d-67">
          <mxGeometry x="70" y="55" width="70" height="40" as="geometry" />
        </mxCell>
        <mxCell id="PDaQLxChN3T3SNH4538d-38" value="Information" style="ellipse;whiteSpace=wrap;html=1;fillColor=none;strokeWidth=2;fontStyle=1;fontSize=12;" vertex="1" parent="PDaQLxChN3T3SNH4538d-67">
          <mxGeometry x="80" y="130" width="70" height="40" as="geometry" />
        </mxCell>
        <mxCell id="PDaQLxChN3T3SNH4538d-39" value="Information" style="ellipse;whiteSpace=wrap;html=1;fillColor=none;strokeWidth=2;fontStyle=1;fontSize=12;" vertex="1" parent="PDaQLxChN3T3SNH4538d-67">
          <mxGeometry x="60" y="230" width="70" height="40" as="geometry" />
        </mxCell>
        <mxCell id="PDaQLxChN3T3SNH4538d-40" value="Information" style="ellipse;whiteSpace=wrap;html=1;fillColor=none;strokeWidth=2;fontStyle=1;fontSize=12;" vertex="1" parent="PDaQLxChN3T3SNH4538d-67">
          <mxGeometry x="100" y="290" width="70" height="40" as="geometry" />
        </mxCell>
        <mxCell id="PDaQLxChN3T3SNH4538d-41" value="Information" style="ellipse;whiteSpace=wrap;html=1;fillColor=none;strokeWidth=2;fontStyle=1;fontSize=12;" vertex="1" parent="PDaQLxChN3T3SNH4538d-67">
          <mxGeometry x="200" y="300" width="70" height="40" as="geometry" />
        </mxCell>
        <mxCell id="PDaQLxChN3T3SNH4538d-42" value="Information" style="ellipse;whiteSpace=wrap;html=1;fillColor=none;strokeWidth=2;fontStyle=1;fontSize=12;" vertex="1" parent="PDaQLxChN3T3SNH4538d-67">
          <mxGeometry x="270" y="360" width="70" height="40" as="geometry" />
        </mxCell>
        <mxCell id="PDaQLxChN3T3SNH4538d-43" value="Information" style="ellipse;whiteSpace=wrap;html=1;fillColor=none;strokeWidth=2;fontStyle=1;fontSize=12;" vertex="1" parent="PDaQLxChN3T3SNH4538d-67">
          <mxGeometry x="360" y="360" width="70" height="40" as="geometry" />
        </mxCell>
        <mxCell id="PDaQLxChN3T3SNH4538d-44" value="Information" style="ellipse;whiteSpace=wrap;html=1;fillColor=none;strokeWidth=2;fontStyle=1;fontSize=12;" vertex="1" parent="PDaQLxChN3T3SNH4538d-67">
          <mxGeometry x="440" y="310" width="70" height="40" as="geometry" />
        </mxCell>
        <mxCell id="PDaQLxChN3T3SNH4538d-45" value="Information" style="ellipse;whiteSpace=wrap;html=1;fillColor=none;strokeWidth=2;fontStyle=1;fontSize=12;" vertex="1" parent="PDaQLxChN3T3SNH4538d-67">
          <mxGeometry x="540" y="260" width="70" height="40" as="geometry" />
        </mxCell>
        <mxCell id="PDaQLxChN3T3SNH4538d-46" value="Information" style="ellipse;whiteSpace=wrap;html=1;fillColor=none;strokeWidth=2;fontStyle=1;fontSize=12;" vertex="1" parent="PDaQLxChN3T3SNH4538d-67">
          <mxGeometry x="540" y="190" width="70" height="40" as="geometry" />
        </mxCell>
        <mxCell id="PDaQLxChN3T3SNH4538d-47" value="Information" style="ellipse;whiteSpace=wrap;html=1;fillColor=none;strokeWidth=2;fontStyle=1;fontSize=12;" vertex="1" parent="PDaQLxChN3T3SNH4538d-67">
          <mxGeometry x="530" y="95" width="70" height="40" as="geometry" />
        </mxCell>
        <mxCell id="PDaQLxChN3T3SNH4538d-48" value="Information" style="ellipse;whiteSpace=wrap;html=1;fillColor=none;strokeWidth=2;fontStyle=1;fontSize=12;" vertex="1" parent="PDaQLxChN3T3SNH4538d-67">
          <mxGeometry x="480" y="15" width="70" height="40" as="geometry" />
        </mxCell>
        <mxCell id="PDaQLxChN3T3SNH4538d-49" value="" style="endArrow=none;html=1;rounded=0;strokeWidth=2;fontStyle=1;fontSize=12;" edge="1" parent="PDaQLxChN3T3SNH4538d-67" source="PDaQLxChN3T3SNH4538d-19" target="PDaQLxChN3T3SNH4538d-38">
          <mxGeometry width="50" height="50" relative="1" as="geometry">
            <mxPoint y="220" as="sourcePoint" />
            <mxPoint x="50" y="170" as="targetPoint" />
          </mxGeometry>
        </mxCell>
        <mxCell id="PDaQLxChN3T3SNH4538d-50" value="" style="endArrow=none;html=1;rounded=0;strokeWidth=2;fontStyle=1;fontSize=12;" edge="1" parent="PDaQLxChN3T3SNH4538d-67" source="PDaQLxChN3T3SNH4538d-19" target="PDaQLxChN3T3SNH4538d-37">
          <mxGeometry width="50" height="50" relative="1" as="geometry">
            <mxPoint y="220" as="sourcePoint" />
            <mxPoint x="50" y="170" as="targetPoint" />
          </mxGeometry>
        </mxCell>
        <mxCell id="PDaQLxChN3T3SNH4538d-51" value="" style="endArrow=none;html=1;rounded=0;strokeWidth=2;fontStyle=1;fontSize=12;" edge="1" parent="PDaQLxChN3T3SNH4538d-67" source="PDaQLxChN3T3SNH4538d-19" target="PDaQLxChN3T3SNH4538d-36">
          <mxGeometry width="50" height="50" relative="1" as="geometry">
            <mxPoint x="203" y="114" as="sourcePoint" />
            <mxPoint x="145" y="95" as="targetPoint" />
          </mxGeometry>
        </mxCell>
        <mxCell id="PDaQLxChN3T3SNH4538d-52" value="" style="endArrow=none;html=1;rounded=0;strokeWidth=2;fontStyle=1;fontSize=12;" edge="1" parent="PDaQLxChN3T3SNH4538d-67" source="PDaQLxChN3T3SNH4538d-20" target="PDaQLxChN3T3SNH4538d-39">
          <mxGeometry width="50" height="50" relative="1" as="geometry">
            <mxPoint x="227" y="110" as="sourcePoint" />
            <mxPoint x="195" y="49" as="targetPoint" />
          </mxGeometry>
        </mxCell>
        <mxCell id="PDaQLxChN3T3SNH4538d-53" value="" style="endArrow=none;html=1;rounded=0;strokeWidth=2;fontStyle=1;fontSize=12;" edge="1" parent="PDaQLxChN3T3SNH4538d-67" source="PDaQLxChN3T3SNH4538d-20" target="PDaQLxChN3T3SNH4538d-40">
          <mxGeometry width="50" height="50" relative="1" as="geometry">
            <mxPoint x="145" y="253" as="sourcePoint" />
            <mxPoint x="79" y="264" as="targetPoint" />
          </mxGeometry>
        </mxCell>
        <mxCell id="PDaQLxChN3T3SNH4538d-54" value="" style="endArrow=none;html=1;rounded=0;strokeWidth=2;fontStyle=1;fontSize=12;" edge="1" parent="PDaQLxChN3T3SNH4538d-67" source="PDaQLxChN3T3SNH4538d-20" target="PDaQLxChN3T3SNH4538d-41">
          <mxGeometry width="50" height="50" relative="1" as="geometry">
            <mxPoint x="170" y="260" as="sourcePoint" />
            <mxPoint x="124" y="303" as="targetPoint" />
          </mxGeometry>
        </mxCell>
        <mxCell id="PDaQLxChN3T3SNH4538d-55" value="" style="endArrow=none;html=1;rounded=0;strokeWidth=2;fontStyle=1;fontSize=12;" edge="1" parent="PDaQLxChN3T3SNH4538d-67" source="PDaQLxChN3T3SNH4538d-21" target="PDaQLxChN3T3SNH4538d-42">
          <mxGeometry width="50" height="50" relative="1" as="geometry">
            <mxPoint x="186" y="261" as="sourcePoint" />
            <mxPoint x="193" y="340" as="targetPoint" />
          </mxGeometry>
        </mxCell>
        <mxCell id="PDaQLxChN3T3SNH4538d-56" value="" style="endArrow=none;html=1;rounded=0;strokeWidth=2;fontStyle=1;fontSize=12;" edge="1" parent="PDaQLxChN3T3SNH4538d-67" source="PDaQLxChN3T3SNH4538d-21" target="PDaQLxChN3T3SNH4538d-43">
          <mxGeometry width="50" height="50" relative="1" as="geometry">
            <mxPoint x="340" y="320" as="sourcePoint" />
            <mxPoint x="322" y="370" as="targetPoint" />
          </mxGeometry>
        </mxCell>
        <mxCell id="PDaQLxChN3T3SNH4538d-57" value="" style="endArrow=none;html=1;rounded=0;strokeWidth=2;fontStyle=1;fontSize=12;" edge="1" parent="PDaQLxChN3T3SNH4538d-67" source="PDaQLxChN3T3SNH4538d-21" target="PDaQLxChN3T3SNH4538d-44">
          <mxGeometry width="50" height="50" relative="1" as="geometry">
            <mxPoint x="355" y="320" as="sourcePoint" />
            <mxPoint x="392" y="371" as="targetPoint" />
          </mxGeometry>
        </mxCell>
        <mxCell id="PDaQLxChN3T3SNH4538d-58" value="" style="endArrow=none;html=1;rounded=0;dashed=1;strokeWidth=2;fontStyle=1;fontSize=12;" edge="1" parent="PDaQLxChN3T3SNH4538d-67" source="PDaQLxChN3T3SNH4538d-24" target="PDaQLxChN3T3SNH4538d-45">
          <mxGeometry width="50" height="50" relative="1" as="geometry">
            <mxPoint x="381" y="314" as="sourcePoint" />
            <mxPoint x="453" y="332" as="targetPoint" />
          </mxGeometry>
        </mxCell>
        <mxCell id="PDaQLxChN3T3SNH4538d-59" value="" style="endArrow=none;html=1;rounded=0;dashed=1;strokeWidth=2;fontStyle=1;fontSize=12;" edge="1" parent="PDaQLxChN3T3SNH4538d-67" source="PDaQLxChN3T3SNH4538d-24" target="PDaQLxChN3T3SNH4538d-46">
          <mxGeometry width="50" height="50" relative="1" as="geometry">
            <mxPoint x="496" y="257" as="sourcePoint" />
            <mxPoint x="556" y="279" as="targetPoint" />
          </mxGeometry>
        </mxCell>
        <mxCell id="PDaQLxChN3T3SNH4538d-60" value="" style="endArrow=none;html=1;rounded=0;dashed=1;strokeWidth=2;fontStyle=1;fontSize=12;" edge="1" parent="PDaQLxChN3T3SNH4538d-67" source="PDaQLxChN3T3SNH4538d-22" target="PDaQLxChN3T3SNH4538d-47">
          <mxGeometry width="50" height="50" relative="1" as="geometry">
            <mxPoint x="504" y="238" as="sourcePoint" />
            <mxPoint x="552" y="227" as="targetPoint" />
          </mxGeometry>
        </mxCell>
        <mxCell id="PDaQLxChN3T3SNH4538d-61" value="" style="endArrow=none;html=1;rounded=0;dashed=1;strokeWidth=2;fontStyle=1;fontSize=12;" edge="1" parent="PDaQLxChN3T3SNH4538d-67" source="PDaQLxChN3T3SNH4538d-22" target="PDaQLxChN3T3SNH4538d-48">
          <mxGeometry width="50" height="50" relative="1" as="geometry">
            <mxPoint x="499" y="118" as="sourcePoint" />
            <mxPoint x="540" y="122" as="targetPoint" />
          </mxGeometry>
        </mxCell>
        <mxCell id="PDaQLxChN3T3SNH4538d-68" value="" style="group;fillColor=none;strokeWidth=2;fontStyle=1;fontSize=12;" vertex="1" connectable="0" parent="1">
          <mxGeometry x="60" y="230" width="310" height="290" as="geometry" />
        </mxCell>
        <mxCell id="PDaQLxChN3T3SNH4538d-14" value="" style="rounded=1;whiteSpace=wrap;html=1;arcSize=26;fillColor=none;strokeWidth=2;fontStyle=1;fontSize=12;" vertex="1" parent="PDaQLxChN3T3SNH4538d-68">
          <mxGeometry width="310" height="290" as="geometry" />
        </mxCell>
        <mxCell id="PDaQLxChN3T3SNH4538d-7" value="&lt;div style=&quot;font-size: 12px;&quot;&gt;&amp;lt;Subject, Verb, Complement, Correctness, Bias&amp;gt;&lt;/div&gt;" style="text;html=1;strokeColor=none;fillColor=none;align=center;verticalAlign=middle;whiteSpace=wrap;rounded=0;strokeWidth=2;fontStyle=1;fontSize=12;" vertex="1" parent="PDaQLxChN3T3SNH4538d-68">
          <mxGeometry x="10" y="35" width="290" height="30" as="geometry" />
        </mxCell>
        <mxCell id="PDaQLxChN3T3SNH4538d-8" value="&lt;div style=&quot;font-size: 12px;&quot;&gt;&amp;lt;Subject, Verb, Complement, Correctness, Bias&amp;gt;&lt;/div&gt;" style="text;html=1;strokeColor=none;fillColor=none;align=center;verticalAlign=middle;whiteSpace=wrap;rounded=0;strokeWidth=2;fontStyle=1;fontSize=12;" vertex="1" parent="PDaQLxChN3T3SNH4538d-68">
          <mxGeometry x="10" y="75" width="290" height="30" as="geometry" />
        </mxCell>
        <mxCell id="PDaQLxChN3T3SNH4538d-9" value="&lt;div style=&quot;font-size: 12px;&quot;&gt;&amp;lt;Subject, Verb, Complement, Correctness, Bias&amp;gt;&lt;/div&gt;" style="text;html=1;strokeColor=none;fillColor=none;align=center;verticalAlign=middle;whiteSpace=wrap;rounded=0;strokeWidth=2;fontStyle=1;fontSize=12;" vertex="1" parent="PDaQLxChN3T3SNH4538d-68">
          <mxGeometry x="10" y="113" width="290" height="30" as="geometry" />
        </mxCell>
        <mxCell id="PDaQLxChN3T3SNH4538d-10" value="&lt;div style=&quot;font-size: 12px;&quot;&gt;&amp;lt;Subject, Verb, Complement, Correctness, Bias&amp;gt;&lt;/div&gt;" style="text;html=1;strokeColor=none;fillColor=none;align=center;verticalAlign=middle;whiteSpace=wrap;rounded=0;strokeWidth=2;fontStyle=1;fontSize=12;" vertex="1" parent="PDaQLxChN3T3SNH4538d-68">
          <mxGeometry x="10" y="155" width="290" height="30" as="geometry" />
        </mxCell>
        <mxCell id="PDaQLxChN3T3SNH4538d-12" value="&lt;div style=&quot;font-size: 12px;&quot;&gt;&amp;lt;Subject, Verb, Complement, Correctness, Bias&amp;gt;&lt;/div&gt;" style="text;html=1;strokeColor=none;fillColor=none;align=center;verticalAlign=middle;whiteSpace=wrap;rounded=0;strokeWidth=2;fontStyle=1;fontSize=12;" vertex="1" parent="PDaQLxChN3T3SNH4538d-68">
          <mxGeometry x="10" y="235" width="290" height="30" as="geometry" />
        </mxCell>
        <mxCell id="PDaQLxChN3T3SNH4538d-74" value="" style="endArrow=none;dashed=1;html=1;dashPattern=1 3;strokeWidth=2;rounded=0;fontStyle=1;fontSize=12;" edge="1" parent="PDaQLxChN3T3SNH4538d-68">
          <mxGeometry width="50" height="50" relative="1" as="geometry">
            <mxPoint x="154.6" y="220" as="sourcePoint" />
            <mxPoint x="154.6" y="190" as="targetPoint" />
          </mxGeometry>
        </mxCell>
        <mxCell id="PDaQLxChN3T3SNH4538d-69" value="" style="shape=curlyBracket;whiteSpace=wrap;html=1;rounded=1;labelPosition=left;verticalLabelPosition=middle;align=right;verticalAlign=middle;rotation=-90;size=0.4375;strokeWidth=2;fontStyle=1;fontSize=12;" vertex="1" parent="1">
          <mxGeometry x="200.69" y="-161.43" width="20" height="498.87" as="geometry" />
        </mxCell>
        <mxCell id="PDaQLxChN3T3SNH4538d-71" value="..." style="text;html=1;strokeColor=none;fillColor=none;align=center;verticalAlign=middle;whiteSpace=wrap;rounded=0;strokeWidth=2;fontStyle=1;fontSize=12;" vertex="1" parent="1">
          <mxGeometry x="169" y="24" width="60" height="30" as="geometry" />
        </mxCell>
        <mxCell id="PDaQLxChN3T3SNH4538d-72" value="..." style="text;html=1;strokeColor=none;fillColor=none;align=center;verticalAlign=middle;whiteSpace=wrap;rounded=0;strokeWidth=2;fontStyle=1;fontSize=12;" vertex="1" parent="1">
          <mxGeometry x="303" y="24" width="60" height="30" as="geometry" />
        </mxCell>
        <mxCell id="PDaQLxChN3T3SNH4538d-73" value="&lt;div style=&quot;font-size: 12px;&quot;&gt;Source n&lt;br style=&quot;font-size: 12px;&quot;&gt;&lt;/div&gt;" style="ellipse;whiteSpace=wrap;html=1;fillColor=none;strokeWidth=2;fontStyle=1;fontSize=12;" vertex="1" parent="1">
          <mxGeometry x="354.25" y="19" width="100" height="40" as="geometry" />
        </mxCell>
      </root>
    </mxGraphModel>
  </diagram>
</mxfile>
